<svg xmlns="http://www.w3.org/2000/svg" xmlns:xlink="http://www.w3.org/1999/xlink" version="1.1" x="0px" y="0px" viewBox="0 0 48 48" enable-background="new 0 0 48 48" xml:space="preserve"><g><path fill="none" stroke="#000000" stroke-width="2" stroke-miterlimit="10" d="M45.535,34.766l-1.578-1.27l-3.352,3.963   l1.581,1.271c1.46,1.173,3.409,1.242,4.332,0.152C47.44,37.791,46.998,35.94,45.535,34.766z"></path><path fill="none" stroke="#000000" stroke-width="2" stroke-linejoin="round" stroke-miterlimit="10" d="M43.21,32.897   L26.783,19.699c0,0-5.083-2.278-6.263-1.861c-0.075,0.655,2.921,5.831,2.921,5.831L39.86,36.86l1.506-1.781l0,0L43.21,32.897z"></path><polyline fill="none" stroke="#000000" stroke-width="2" stroke-linejoin="round" stroke-miterlimit="10" points="36.929,34.505    36.929,38.485 1,47 1,1 36.929,1 36.929,27.851  "></polyline><polyline fill="none" stroke="#000000" stroke-width="2" stroke-linejoin="round" stroke-miterlimit="10" points="1.872,45.762    22.418,30.526 36.929,38.485  "></polyline><line fill="none" stroke="#000000" stroke-width="2" stroke-linecap="round" stroke-linejoin="round" stroke-miterlimit="10" x1="7.692" y1="7.121" x2="28.62" y2="7.121"></line><line fill="none" stroke="#000000" stroke-width="2" stroke-linecap="round" stroke-linejoin="round" stroke-miterlimit="10" x1="7.692" y1="13.798" x2="28.62" y2="13.798"></line><line fill="none" stroke="#000000" stroke-width="2" stroke-linecap="round" stroke-linejoin="round" stroke-miterlimit="10" x1="7.692" y1="20.526" x2="21.238" y2="20.526"></line><line fill="none" stroke="#000000" stroke-width="2" stroke-linecap="round" stroke-linejoin="round" stroke-miterlimit="10" x1="7.692" y1="27.252" x2="25.499" y2="27.252"></line></g></svg>